/* XPM */
static char * east_xpm[] = {
"64 64 59 1",
" 	c #4576DC",
".	c #4477DE",
"+	c #3B71D0",
"@	c #0F5EA3",
"#	c #004A6A",
"$	c #004146",
"%	c #003E3B",
"&	c #003D33",
"*	c #003800",
"=	c #003300",
"-	c #003400",
";	c #003500",
">	c #003C2F",
",	c #003D36",
"'	c #003C2D",
")	c #003F3E",
"!	c #004D73",
"~	c #2465B3",
"{	c #3F74D7",
"]	c #00578F",
"^	c #003000",
"/	c #002C00",
"(	c #003F3F",
"_	c #2F6AC0",
":	c #002D00",
"<	c #135FA5",
"[	c #003100",
"}	c #003700",
"|	c #002F00",
"1	c #004042",
"2	c #004454",
"3	c #004456",
"4	c #00475E",
"5	c #4175D9",
"6	c #002E00",
"7	c #005790",
"8	c #005B9B",
"9	c #003C2B",
"0	c #003D2F",
"a	c #005281",
"b	c #005A99",
"c	c #095DA0",
"d	c #00517F",
"e	c #00465A",
"f	c #356EC8",
"g	c #2365B3",
"h	c #025C9D",
"i	c #004E78",
"j	c #003B27",
"k	c #003D32",
"l	c #005488",
"m	c #005283",
"n	c #003E36",
"o	c #00568D",
"p	c #2867B8",
"q	c #003C30",
"r	c #3970CD",
"s	c #346DC7",
"t	c #125FA4",
" ...............................................................",
"................................................................",
"................................................................",
"................................................................",
"................................................................",
"................................................................",
"................................................................",
"................................................................",
"................................................................",
"................................................................",
"................................................................",
"................+@#$%%&*=-;*>%%%%%%%%%%%%%%,')!~{...............",
"................]^/////////////////////////////(_...............",
"................;//////////////////////////////:<...............",
"................[//////////////////////////////:<...............",
"................}//////////////////////////////(_...............",
"................>////|123'}*>%%%%%%%%%%%%%%,')!~{...............",
"................%////%..........................................",
"................%////%..........................................",
"................%////%..........................................",
"................%////%..........................................",
"................%////%..........................................",
"................%////%..........................................",
"................%////%..........................................",
"................&////1..........................................",
"................}////4..........................................",
"...............56////7..........................................",
"..............._/////_..........................................",
"...............7////65..........................................",
"...............4////}...........................................",
"...............1////&...........................................",
"...............%////6[||||||||[}&%%$#@+.........................",
"...............>/////////////////////-8.........................",
"...............*//////////////////////9.........................",
"...............;//////////////////////9.........................",
"...............^/////////////////////-8.........................",
".............../////0abccccccbde1%%$#@+.........................",
".............../////+...........................................",
".............../////............................................",
".............../////............................................",
".............../////............................................",
"..............5/////............................................",
"..............f/////............................................",
"..............g////6............................................",
"..............h////|............................................",
"..............i////[............................................",
"..............j////k............................................",
".............5|////l............................................",
"............._/////_............................................",
".............m////|5............................................",
".............}////n.............................................",
"............5/////o.........................5_741%$#@+..........",
"............f:////////////6||||||||||[}&%&}|////////-8..........",
"............p////////////////////////////////////////9..........",
"............p////////////////////////////////////////9..........",
"............fq//////////////////////////////////////-8..........",
"............5gq://////////////////////////////|}&%$#@+..........",
"..............5rsr5.....5fgtccccccccbde1%147_5..................",
"................................................................",
"................................................................",
"................................................................",
"................................................................",
"................................................................",
"................................................................"};
