/* XPM */
static char * north_xpm[] = {
"64 64 77 1",
" 	c #4576DC",
".	c #4477DE",
"+	c #2F6AC0",
"@	c #004863",
"#	c #002C00",
"$	c #00424D",
"%	c #4175D9",
"&	c #356DC7",
"*	c #00507C",
"=	c #003700",
"-	c #356DC8",
";	c #3970CD",
">	c #005488",
",	c #002E00",
"'	c #346DC7",
")	c #002D00",
"!	c #356EC8",
"~	c #003F3F",
"{	c #1B61AB",
"]	c #004351",
"^	c #003C2B",
"/	c #3B71D0",
"(	c #003000",
"_	c #005283",
":	c #004D74",
"<	c #003D32",
"[	c #003A16",
"}	c #005C9B",
"|	c #005995",
"1	c #095DA0",
"2	c #003400",
"3	c #00465A",
"4	c #004350",
"5	c #316BC2",
"6	c #003D33",
"7	c #004042",
"8	c #003E3B",
"9	c #002F00",
"0	c #2365B3",
"a	c #003300",
"b	c #2164B1",
"c	c #004862",
"d	c #003600",
"e	c #00475E",
"f	c #005790",
"g	c #125FA4",
"h	c #004148",
"i	c #2766B7",
"j	c #00568D",
"k	c #003200",
"l	c #2967B9",
"m	c #003500",
"n	c #005A99",
"o	c #00517F",
"p	c #003100",
"q	c #003F40",
"r	c #376FCB",
"s	c #003915",
"t	c #00558A",
"u	c #004146",
"v	c #003C2D",
"w	c #004966",
"x	c #004455",
"y	c #005791",
"z	c #025C9D",
"A	c #2867B8",
"B	c #3D72D3",
"C	c #005B9B",
"D	c #003C2C",
"E	c #003800",
"F	c #004453",
"G	c #003C2F",
"H	c #004557",
"I	c #003B25",
"J	c #003A19",
"K	c #00390E",
"L	c #00507D",
" ...............................................................",
"................................................................",
"................................................................",
"................................................................",
"................................................................",
"................................................................",
"................................................................",
"................................................................",
"........................................+@#@+...................",
"........................................$###$...................",
"........................................#####...................",
"........................................#####...................",
".......................................%#####...................",
"..............&*==*-...................;#####%..................",
"..............>,###@...................'####)!..................",
"..............~#####+..................;)####{..................",
"..............]#####^/.................%(####*..................",
".............._######:/.................<####[%.................",
"..............}######,|.................>####,!.................",
"..............1#######2/................+)####{.................",
"..............1########:/...............%(####_.................",
"..............1########):/...............=####3.................",
"..............1##########45..............6####7.................",
"..............1####))####):..............8####8.................",
"..............1####9:)####,0%............8####8.................",
"..............1####9/:#####ab............8####8.................",
"..............1####9./@#####a+...........6####7.................",
"..............1####9../c#####d5..........=####e.................",
"..............1####9...'=#####~/.........9####f.................",
"..............g####,%...+(#####:/........#####+.................",
"..............0####)+....|######hi%.....%#####%.................",
"..............!,####f..../~######=0.....!#####..................",
"..............%d####e.....54)#####a+....0####,..................",
"...............6####7....../j(#####kl...g####9..................",
"...............8####8.......%0m#####7%..n####9..................",
"...............8####8.........'k####)i..o####p..................",
"...............8####8..........>#####q/.3####=..................",
"...............8####8..........rs#####t%8####8..................",
"...............u####v...........ip####pi=####3..................",
"...............w####a...........%t#####x(####o..................",
"...............y#####............/q####,,####z..................",
"...............{####,.............i,#########0..................",
"...............A####)%............%x#########!..................",
"...............!#####!.............im########B..................",
"...............%)####0.............%0)#######!..................",
"................9####g...............]#######0..................",
"................9####1...............l)######g..................",
"................9####1................q######1..................",
"................9####1................C######1..................",
"................9####1................/,#####1..................",
"................9####1.................D#####g..................",
"................9####n.................>#####0..................",
"................p####o.................+#####!..................",
"................E####F.................%G###G%..................",
"................H####I..................+@#@+...................",
"................f####J..........................................",
"................+K##9*..........................................",
"................%0FaL'..........................................",
"................................................................",
"................................................................",
"................................................................",
"................................................................",
"................................................................",
"................................................................"};
