/* XPM */
static char * south_xpm[] = {
"64 64 100 2",
"  	c #4576DC",
". 	c #4477DE",
"+ 	c #4174D9",
"@ 	c #2F68C0",
"# 	c #005090",
"$ 	c #003B5E",
"% 	c #003042",
"& 	c #002E3B",
"* 	c #00395A",
"= 	c #00497F",
"- 	c #005599",
"; 	c #125AA4",
"> 	c #2361B3",
", 	c #356CC8",
"' 	c #3F73D6",
") 	c #3169C3",
"! 	c #2562B5",
"~ 	c #2A65BB",
"{ 	c #396FCE",
"] 	c #4276DB",
"^ 	c #3B70D0",
"/ 	c #00569B",
"( 	c #002B2E",
"_ 	c #000700",
": 	c #000000",
"< 	c #000500",
"[ 	c #000A00",
"} 	c #000B00",
"| 	c #000900",
"1 	c #00406B",
"2 	c #366DCA",
"3 	c #3169C2",
"4 	c #002F3F",
"5 	c #000200",
"6 	c #000C00",
"7 	c #1B5EAB",
"8 	c #003754",
"9 	c #000100",
"0 	c #06589F",
"a 	c #396FCD",
"b 	c #000600",
"c 	c #001E00",
"d 	c #2663B6",
"e 	c #346BC7",
"f 	c #000400",
"g 	c #002C33",
"h 	c #002200",
"i 	c #001200",
"j 	c #000D00",
"k 	c #005497",
"l 	c #3D71D3",
"m 	c #155BA7",
"n 	c #002000",
"o 	c #00250B",
"p 	c #004B83",
"q 	c #00426F",
"r 	c #001800",
"s 	c #00303F",
"t 	c #004E8A",
"u 	c #000800",
"v 	c #003D65",
"w 	c #002A2B",
"x 	c #003B60",
"y 	c #2763B7",
"z 	c #001600",
"A 	c #002C35",
"B 	c #004A83",
"C 	c #004474",
"D 	c #000E00",
"E 	c #002300",
"F 	c #003D63",
"G 	c #0F59A3",
"H 	c #001500",
"I 	c #001400",
"J 	c #003652",
"K 	c #003755",
"L 	c #003F6A",
"M 	c #001000",
"N 	c #002100",
"O 	c #001C00",
"P 	c #005395",
"Q 	c #003651",
"R 	c #002928",
"S 	c #001900",
"T 	c #00487D",
"U 	c #002400",
"V 	c #3D72D3",
"W 	c #003D64",
"X 	c #003247",
"Y 	c #2160B1",
"Z 	c #002A2C",
"` 	c #00250E",
" .	c #000F00",
"..	c #0F5AA3",
"+.	c #004F8D",
"@.	c #376DCB",
"#.	c #003857",
"$.	c #1A5DAA",
"%.	c #004678",
"&.	c #001F00",
"  . . . . . . . . . . . . . . . . . . . . . . . . . . . . . . . . . . . . . . . . . . . . . . . . . . . . . . . . . . . . . . . ",
". . . . . . . . . . . . . . . . . . . . . . . . . . . . . . . . . . . . . . . . . . . . . . . . . . . . . . . . . . . . . . . . ",
". . . . . . . . . . . . . . . . . . . . . . . . . . . . . . . . . . . . . . . . . . . . . . . . . . . . . . . . . . . . . . . . ",
". . . . . . . . . . . . . . . . . . . . . . . . . . . . . . . . . . . . . . . . . . . . . . . . . . . . . . . . . . . . . . . . ",
". . . . . . . . . . . . . . . . . . . . . . . . . . . . . . . . . . . . . . . . . . . . . . . . . . . . . . . . . . . . . . . . ",
". . . . . . . . . . . . . . . . . . . . . . . . . . . . . . . . . . . . . . . . . . . . . . . . . . . . . . . . . . . . . . . . ",
". . . . . . . . . . . . . . . . . . . . . . . . . . . . . . . . . . . . . . . . . . . . . . . . . . . . . . . . . . . . . . . . ",
". . . . . . . . . . . . . . . . . . . . . . . . . . . . . . . . . . . . . . . . . . . . . . . . . . . . . . . . . . . . . . . . ",
". . . . . . . . . . . . . . . . . . . . . . . . . . . . . . . . . . . . . . . . . . . . . . . . . . . . . . . . . . . . . . . . ",
". . . . . . . . . . . . . . . . . . . . . . . . . . . . . . . . . . . . . . . . . . . . . . . . . . . . . . . . . . . . . . . . ",
". . . . . . . . . . . . . . . . + @ # $ % & & & & & & % * = - ; > , + . . . ' ) ! ~ { ] . . . . . . . . . . . . . . . . . . . . ",
". . . . . . . . . . . . . . ^ / ( _ : : : : : : : : : : : : : : : < [ } _ : : : : | 1 2 . . . . . . . . . . . . . . . . . . . . ",
". . . . . . . . . . . . . 3 4 5 : : : : : : : : : : : : : : : : : : : : : : : : : : 6 7 . . . . . . . . . . . . . . . . . . . . ",
". . . . . . . . . . . . + 8 : : : : : : : : : : : : : : : : : : : : : : : : : : : : 9 0 . . . . . . . . . . . . . . . . . . . . ",
". . . . . . . . . . . . a b : : : : : : : : : : : : : : : : : : : : : : : : : : : : c d . . . . . . . . . . . . . . . . . . . . ",
". . . . . . . . . . . . e : : : : : f c g & & & & & & g h i j [ < : : : : : : : _ h k l . . . . . . . . . . . . . . . . . . . . ",
". . . . . . . . . . . . a : : : : : m + . . . . . . . . . . . + , > ; ; > , + . . . . . . . . . . . . . . . . . . . . . . . . . ",
". . . . . . . . . . . . + : : : : : / . . . . . . . . . . . . . . . . . . . . . . . . . . . . . . . . . . . . . . . . . . . . . ",
". . . . . . . . . . . . . n : : : : o ^ . . . . . . . . . . . . . . . . . . . . . . . . . . . . . . . . . . . . . . . . . . . . ",
". . . . . . . . . . . . . p : : : : 9 q ^ . . . . . . . . . . . . . . . . . . . . . . . . . . . . . . . . . . . . . . . . . . . ",
". . . . . . . . . . . . . @ r : : : : 5 s > + . . . . . . . . . . . . . . . . . . . . . . . . . . . . . . . . . . . . . . . . . ",
". . . . . . . . . . . . . + t : : : : : : u v 3 . . . . . . . . . . . . . . . . . . . . . . . . . . . . . . . . . . . . . . . . ",
". . . . . . . . . . . . . . ^ w : : : : : : : b x y + . . . . . . . . . . . . . . . . . . . . . . . . . . . . . . . . . . . . . ",
". . . . . . . . . . . . . . . @ w : : : : : : : : : z A * B 7 , + . . . . . . . . . . . . . . . . . . . . . . . . . . . . . . . ",
". . . . . . . . . . . . . . . . ^ 4 5 : : : : : : : : : : : : | c & $ # @ + . . . . . . . . . . . . . . . . . . . . . . . . . . ",
". . . . . . . . . . . . . . . . . 3 C D : : : : : : : : : : : : : : : : : } E F G ^ . . . . . . . . . . . . . . . . . . . . . . ",
". . . . . . . . . . . . . . . . . . . 3 q H : : : : : : : : : : : : : : : : : : : I J # @ + . . . . . . . . . . . . . . . . . . ",
". . . . . . . . . . . . . . . . . . . . . + y x 6 : : : : : : : : : : : : : : : : : : : [ K y + . . . . . . . . . . . . . . . . ",
". . . . . . . . . . . . . . . . . . . . . . . . ^ G L 4 h M f : : : : : : : : : : : : : : : < ( / ^ . . . . . . . . . . . . . . ",
". . . . . . . . . . . . . . . . . . . . . . . . . . . . . + @ # $ & N } : : : : : : : : : : : : : O P ^ . . . . . . . . . . . . ",
". . . . . . . . . . . . . . . . . . . . . . . . . . . . . . . . . . . + @ # J I : : : : : : : : : : f Q e . . . . . . . . . . . ",
". . . . . . . . . . . . . . . . . . . . . . . . . . . . . . . . . . . . . . . ^ G F N < : : : : : : : : R e . . . . . . . . . . ",
". . . . . . . . . . . . . . . . . . . . . . . . . . . . . . . . . . . . . . . . . . + y K [ : : : : : : : Q ^ . . . . . . . . . ",
". . . . . . . . . . . . . . . . . . . . . . . . . . . . . . . . . . . . . . . . . . . . + @ p S : : : : : f P . . . . . . . . . ",
". . . . . . . . . . . . . . . . . . . . . . . . . . . . . . . . . . . . . . . . . . . . . . . ^ T b : : : : U . . . . . . . . . ",
". . . . . . . . . . . . . . . . . . . . . . . . . . . . . . . . . . . . . . . . . . . . . . . . V T : : : : : . . . . . . . . . ",
". . . . . . . . . . . . . . . . . . . . . . . . . . . . . . . . . . . . . . . . . . . . . . . . . ^ : : : : : . . . . . . . . . ",
". . . . . . . . . . . . . . . . . . . . . . . . . . . . . . . . . . . . . . . . . . . . . . . . . + : : : : : . . . . . . . . . ",
". . . . . . . . . . . . . . . . . . . . . . . . . . . . . . . . . . . . . . . . . . . . . . . . . @ : : : : : . . . . . . . . . ",
". . . . . . . . . . . . . . . . . . . . . . . . . . . . . . . . . . . . . . . . . . . . . . . . ^ W : : : : D . . . . . . . . . ",
". . . . . . . . . . . . . . . . . . . . . . . . . . . . . . . . . . . . . . . . . . . . . . . . / } : : : : & . . . . . . . . . ",
". . . . . . . . . . . . . . . . . . . . . . . . . . . . . . . . . . . . . . . . . . . . . . . e n : : : : } / . . . . . . . . . ",
". . . . . . . . . . . . . . . . . . . . . . . . . . . . . . . . . . . . . . . . . . . . . . ^ X : : : : : W ^ . . . . . . . . . ",
". . . . . . . . . . . . . . . . . . . . . . . . . . . . . . . . . . . . . . . . . . . . + Y Z : : : : : ` @ . . . . . . . . . . ",
". . . . . . . . . . . . . . . . . . . . . . . . . . . . . . . . . . . . . . . . . . . ^ t  .: : : : : 6 > + . . . . . . . . . . ",
". . . . . . . . . . . . . . . . . . . . . . . . . . . . . . . . . . . . . . . . ^ G $ I : : : : : :  .t . . . . . . . . . . . . ",
". . . . . . . . . . . . . . . . . . . . . . . . . . . . . . . . . . . . + , ..8 6 : : : : : : : :  .+.@.. . . . . . . . . . . . ",
". . . . . . . . . . . . . . . . . . . . . . . . . . . . . . . + @ # #.h } : : : : : : : : : : : h @ . . . . . . . . . . . . . . ",
". . . . . . . . . . . . . . . . . . ^ $.+./ @ V , 7 %.A &.S M _ : : : : : : : : : : : : : : f Q e . . . . . . . . . . . . . . . ",
". . . . . . . . . . . . . . . . . . / N : : : : : : : : : : : : : : : : : : : : : : : : : O P ^ . . . . . . . . . . . . . . . . ",
". . . . . . . . . . . . . . . . . . w : : : : : : : : : : : : : : : : : : : : : : : r $ G ^ . . . . . . . . . . . . . . . . . . ",
". . . . . . . . . . . . . . . . . . w : : : : : : : : : : : : : : : : : : : _ r v y + . . . . . . . . . . . . . . . . . . . . . ",
". . . . . . . . . . . . . . . . . . / z : : : : : : : : : : : : : } h #.# @ + . . . . . . . . . . . . . . . . . . . . . . . . . ",
". . . . . . . . . . . . . . . . . . ^ / & D : : : u M S &.A %.7 , + . . . . . . . . . . . . . . . . . . . . . . . . . . . . . . ",
". . . . . . . . . . . . . . . . . . . . . . . . . . . . . . . . . . . . . . . . . . . . . . . . . . . . . . . . . . . . . . . . ",
". . . . . . . . . . . . . . . . . . . . . . . . . . . . . . . . . . . . . . . . . . . . . . . . . . . . . . . . . . . . . . . . ",
". . . . . . . . . . . . . . . . . . . . . . . . . . . . . . . . . . . . . . . . . . . . . . . . . . . . . . . . . . . . . . . . ",
". . . . . . . . . . . . . . . . . . . . . . . . . . . . . . . . . . . . . . . . . . . . . . . . . . . . . . . . . . . . . . . . ",
". . . . . . . . . . . . . . . . . . . . . . . . . . . . . . . . . . . . . . . . . . . . . . . . . . . . . . . . . . . . . . . . ",
". . . . . . . . . . . . . . . . . . . . . . . . . . . . . . . . . . . . . . . . . . . . . . . . . . . . . . . . . . . . . . . . ",
". . . . . . . . . . . . . . . . . . . . . . . . . . . . . . . . . . . . . . . . . . . . . . . . . . . . . . . . . . . . . . . . ",
". . . . . . . . . . . . . . . . . . . . . . . . . . . . . . . . . . . . . . . . . . . . . . . . . . . . . . . . . . . . . . . . ",
". . . . . . . . . . . . . . . . . . . . . . . . . . . . . . . . . . . . . . . . . . . . . . . . . . . . . . . . . . . . . . . . ",
". . . . . . . . . . . . . . . . . . . . . . . . . . . . . . . . . . . . . . . . . . . . . . . . . . . . . . . . . . . . . . . . "};
