/* XPM */
static char * west_xpm[] = {
"64 64 102 2",
"  	c #4576DC",
". 	c #4477DE",
"+ 	c #3F73D7",
"@ 	c #2F68C0",
"# 	c #135BA5",
"$ 	c #4276DB",
"% 	c #366DCA",
"& 	c #1B5EAB",
"* 	c #06589F",
"= 	c #2663B6",
"- 	c #3D71D3",
"; 	c #004474",
"> 	c #001C00",
", 	c #3B70D0",
"' 	c #1F5FAF",
") 	c #00569B",
"! 	c #004F8D",
"~ 	c #00250E",
"{ 	c #000E00",
"] 	c #003651",
"^ 	c #1A5DAB",
"/ 	c #001800",
"( 	c #000000",
"_ 	c #000800",
": 	c #004A81",
"< 	c #4174D9",
"[ 	c #003D63",
"} 	c #000900",
"| 	c #00508F",
"1 	c #376DCA",
"2 	c #002000",
"3 	c #001F00",
"4 	c #3169C2",
"5 	c #000D00",
"6 	c #001A00",
"7 	c #003F6A",
"8 	c #000100",
"9 	c #001400",
"0 	c #004678",
"a 	c #004E8A",
"b 	c #000400",
"c 	c #002300",
"d 	c #002E3B",
"e 	c #001100",
"f 	c #2763B7",
"g 	c #003E66",
"h 	c #000500",
"i 	c #00250C",
"j 	c #004B83",
"k 	c #2361B3",
"l 	c #003040",
"m 	c #000200",
"n 	c #001500",
"o 	c #002B2E",
"p 	c #000F00",
"q 	c #001300",
"r 	c #0F59A3",
"s 	c #003653",
"t 	c #00487D",
"u 	c #346BC7",
"v 	c #001E00",
"w 	c #00487C",
"x 	c #004B85",
"y 	c #002400",
"z 	c #003B5F",
"A 	c #000600",
"B 	c #003652",
"C 	c #002407",
"D 	c #005395",
"E 	c #004679",
"F 	c #002B31",
"G 	c #002618",
"H 	c #376DCB",
"I 	c #00406A",
"J 	c #002F3F",
"K 	c #004372",
"L 	c #001700",
"M 	c #00426F",
"N 	c #004C86",
"O 	c #000700",
"P 	c #00250B",
"Q 	c #000300",
"R 	c #002100",
"S 	c #003B5E",
"T 	c #01569D",
"U 	c #003755",
"V 	c #2160B1",
"W 	c #002406",
"X 	c #001600",
"Y 	c #003D65",
"Z 	c #000B00",
"` 	c #2663B5",
" .	c #002A2B",
"..	c #001900",
"+.	c #00303F",
"@.	c #3D72D3",
"#.	c #005090",
"$.	c #2462B3",
"%.	c #003F68",
"&.	c #004270",
"*.	c #001000",
"=.	c #002C33",
"  . . . . . . . . . . . . . . . . . . . . . . . . . . . . . . . . . . . . . . . . . . . . . . . . . . . . . . . . . . . . . . . ",
". . . . . . . . . . . . . . . . . . . . . . . . . . . . . . . . . . . . . . . . . . . . . . . . . . . . . . . . . . . . . . . . ",
". . . . . . . . . . . . . . . . . . . . . . . . . . . . . . . . . . . . . . . . . . . . . . . . . . . . . . . . . . . . . . . . ",
". . . . . . . . . . . . . . . . . . . . . . . . . . . . . . . . . . . . . . . . . . . . . . . . . . . . . . . . . . . . . . . . ",
". . . . . . . . . . . . . . . . . . . . . . . . . . . . . . . . . . . . . . . . . . . . . . . . . . . . . . . . . . . . . . . . ",
". . . . . . . . . . . . . . . . . . . . . . . . . . . . . . . . . . . . . . . . . . . . . . . . . . . . . . . . . . . . . . . . ",
". . . . . . . . . . . . . . . . . . . . . . . . . . . . . . . . . . . . . . . . . . . . . . . . . . . . . . . . . . . . . . . . ",
". . . . . . . . . . . . . . . . . . . . . . . . . . . . . . . . . . . . . . . . . . . . . . . . . . . . . . . . . . . . . . . . ",
". . . . . . . . . . . . . . . . . . . . . + @ # # @ + . . . . . . . . . . . . . . . . . . . . . . . . . . . . . . . . . . . . . ",
". . . . . . . $ % & * = - . . . . . . . . @ ; > > ; @ . . . . . . . . . . . . . . . , ' ) ' , . . . . . . . . . . . . . . . . . ",
". . . . . . . - ! ~ { ] ^ . . . . . . . . # / ( ( _ : < . . . . . . . . . . . . . , [ } ( > | . . . . . . . . . . . . . . . . . ",
". . . . . . . 1 2 ( ( ( 3 4 . . . . . . . # 5 ( ( ( 6 @ . . . . . . . . . . . . , 7 8 ( ( ( 2 . . . . . . . . . . . . . . . . . ",
". . . . . . . 1 9 ( ( ( 8 ; . . . . . . . @ 9 ( ( ( ( 0 < . . . . . . . . . . < a b ( ( ( ( > . . . . . . . . . . . . . . . . . ",
". . . . . . . - c ( ( ( ( > < . . . . . . + d ( ( ( ( e f . . . . . . . . . . @ / ( ( ( ( 8 ; . . . . . . . . . . . . . . . . . ",
". . . . . . . $ g ( ( ( ( h @ . . . . . . . ) b ( ( ( ( i 4 . . . . . . . . . j ( ( ( ( ( { 4 . . . . . . . . . . . . . . . . . ",
". . . . . . . . k b ( ( ( ( j . . . . . . . , l ( ( ( ( m ; . . . . . . . . , n ( ( ( ( _ | . . . . . . . . . . . . . . . . . . ",
". . . . . . . . < o ( ( ( ( p 4 . . . . . . . f q ( ( ( ( _ k < . . . . . . r ( ( ( ( ( ; , . . . . . . . . . . < k s / t u . . ",
". . . . . . . . . ) ( ( ( ( ( ; . . . . . . . < a m ( ( ( ( v f . . . . . . [ ( ( ( ( ( , . . . . . . . . . . . @ ~ ( ( { w . . ",
". . . . . . . . . , p ( ( ( ( 3 . . . . . . . . , [ m ( ( ( ( i 4 . . . . , > ( ( ( ( / . . . . . . . . . . . . x ( ( ( ( y . . ",
". . . . . . . . . . z ( ( ( ( A , . . . . . . . . , B ( ( ( ( ( C 4 . . . D m ( ( ( ( E . . . . . . . . . . . . F ( ( ( ( 3 . . ",
". . . . . . . . . . k ( ( ( ( ( ) . . . . . . . . . f q ( ( ( ( 8 ; . . , > ( ( ( ( / @ . . . . . . . . . . . , e ( ( ( ( G . . ",
". . . . . . . . . . < v ( ( ( ( d . . . . . . . . . < a 8 ( ( ( ( h ) H a ( ( ( ( ( a < . . . . . . . . . . . D 8 ( ( ( ( I . . ",
". . . . . . . . . . . j ( ( ( ( h 4 . . . . . . . . . , J ( ( ( ( ( p K L ( ( ( ( > , . . . . . . . . . . . , > ( ( ( ( p k . . ",
". . . . . . . . . . . @ ( ( ( ( ( M . . . . . . . . . . 4 J m ( ( ( ( b ( ( ( ( m D . . . . . . . . . . . < a ( ( ( ( ( a < . . ",
". . . . . . . . . . . < n ( ( ( ( e , . . . . . . . . . . , N O ( ( ( ( ( ( ( ( P , . . . . . . . . . . . f q ( ( ( ( > , . . . ",
". . . . . . . . . . . . M ( ( ( ( ( ) . . . . . . . . . . . , ] ( ( ( ( ( ( ( 5 ) . . . . . . . . . . . , l ( ( ( ( Q D . . . . ",
". . . . . . . . . . . . 4 p ( ( ( ( P , . . . . . . . . . . . u R ( ( ( ( ( ( S , . . . . . . . . . . , ; m ( ( ( ( l , . . . . ",
". . . . . . . . . . . . . j ( ( ( ( 8 ; , . . . . . . . . . . . T ( ( ( ( ( ( 6 @ . . . . . . . . . < a _ ( ( ( ( q f . . . . . ",
". . . . . . . . . . . . . @ / ( ( ( ( } D . . . . . . . . . . < U ( ( ( ( ( ( ( 2 4 . . . . . . . . V p ( ( ( ( _ a < . . . . . ",
". . . . . . . . . . . . . < a _ ( ( ( ( > , . . . . . . . . . f O ( ( ( ( ( ( ( ( ; . . . . . . . , ~ ( ( ( ( m ; , . . . . . . ",
". . . . . . . . . . . . . . , ; ( ( ( ( ( ; , . . . . . . . , l ( ( ( ( ( ( ( ( ( 5 u . . . . . < a ( ( ( ( ( ] , . . . . . . . ",
". . . . . . . . . . . . . . . , > ( ( ( ( } D . . . . . . . D Q ( ( ( ( W m ( ( ( ( g < . . . . f q ( ( ( ( X u . . . . . . . . ",
". . . . . . . . . . . . . . . . D } ( ( ( ( e 4 . . . . . , > ( ( ( ( q ^ s ( ( ( ( _ f . . . < U ( ( ( ( Q D . . . . . . . . . ",
". . . . . . . . . . . . . . . . , ; ( ( ( ( ( Y < . . . . D ( ( ( ( ( a < @ 5 ( ( ( ( l , . . f O ( ( ( ( l , . . . . . . . . . ",
". . . . . . . . . . . . . . . . . , e ( ( ( ( Z f . . < k p ( ( ( ( > , . < U ( ( ( ( Q a < , l ( ( ( ( O f . . . . . . . . . . ",
". . . . . . . . . . . . . . . . . . M ( ( ( ( ( l , . f v ( ( ( ( ( D . . . f q ( ( ( ( p V D Q ( ( ( ( U < . . . . . . . . . . ",
". . . . . . . . . . . . . . . . . . 4 2 ( ( ( ( ( J ` l ( ( ( ( (  ., . . . < a Q ( ( ( ( ..p ( ( ( ( q f . . . . . . . . . . . ",
". . . . . . . . . . . . . . . . . . . f q ( ( ( ( 8 C m ( ( ( ( 2 @ . . . . . , ] ( ( ( ( ( ( ( ( ( ( a < . . . . . . . . . . . ",
". . . . . . . . . . . . . . . . . . . < a Q ( ( ( ( ( ( ( ( ( q f . . . . . . . u v ( ( ( ( ( ( ( ( e , . . . . . . . . . . . . ",
". . . . . . . . . . . . . . . . . . . . , +.( ( ( ( ( ( ( ( _ a < . . . . . . . . V / ( ( ( ( ( ( ( M . . . . . . . . . . . . . ",
". . . . . . . . . . . . . . . . . . . . . k m ( ( ( ( ( ( m ; , . . . . . . . . . < k n ( ( ( ( ( e 4 . . . . . . . . . . . . . ",
". . . . . . . . . . . . . . . . . . . . . @.5 ( ( ( ( ( ( ] , . . . . . . . . . . . . k ( ( ( ( ( D . . . . . . . . . . . . . . ",
". . . . . . . . . . . . . . . . . . . . . @ A ( ( ( ( ( 9 u . . . . . . . . . . . . . < c ( ( ( > , . . . . . . . . . . . . . . ",
". . . . . . . . . . . . . . . . . . . . . #.( ( ( ( ( ( j . . . . . . . . . . . . . . . $.J ( J $.. . . . . . . . . . . . . . . ",
". . . . . . . . . . . . . . . . . . . . . %.( ( ( ( ( X @ . . . . . . . . . . . . . . . . . . . . . . . . . . . . . . . . . . . ",
". . . . . . . . . . . . . . . . . . . . . &.( ( ( ( ( a < . . . . . . . . . . . . . . . . . . . . . . . . . . . . . . . . . . . ",
". . . . . . . . . . . . . . . . . . . . . r *.( ( 8 =., . . . . . . . . . . . . . . . . . . . . . . . . . . . . . . . . . . . . ",
". . . . . . . . . . . . . . . . . . . . . , | 2 > ; 4 . . . . . . . . . . . . . . . . . . . . . . . . . . . . . . . . . . . . . ",
". . . . . . . . . . . . . . . . . . . . . . . . . . . . . . . . . . . . . . . . . . . . . . . . . . . . . . . . . . . . . . . . ",
". . . . . . . . . . . . . . . . . . . . . . . . . . . . . . . . . . . . . . . . . . . . . . . . . . . . . . . . . . . . . . . . ",
". . . . . . . . . . . . . . . . . . . . . . . . . . . . . . . . . . . . . . . . . . . . . . . . . . . . . . . . . . . . . . . . ",
". . . . . . . . . . . . . . . . . . . . . . . . . . . . . . . . . . . . . . . . . . . . . . . . . . . . . . . . . . . . . . . . ",
". . . . . . . . . . . . . . . . . . . . . . . . . . . . . . . . . . . . . . . . . . . . . . . . . . . . . . . . . . . . . . . . ",
". . . . . . . . . . . . . . . . . . . . . . . . . . . . . . . . . . . . . . . . . . . . . . . . . . . . . . . . . . . . . . . . ",
". . . . . . . . . . . . . . . . . . . . . . . . . . . . . . . . . . . . . . . . . . . . . . . . . . . . . . . . . . . . . . . . ",
". . . . . . . . . . . . . . . . . . . . . . . . . . . . . . . . . . . . . . . . . . . . . . . . . . . . . . . . . . . . . . . . ",
". . . . . . . . . . . . . . . . . . . . . . . . . . . . . . . . . . . . . . . . . . . . . . . . . . . . . . . . . . . . . . . . ",
". . . . . . . . . . . . . . . . . . . . . . . . . . . . . . . . . . . . . . . . . . . . . . . . . . . . . . . . . . . . . . . . ",
". . . . . . . . . . . . . . . . . . . . . . . . . . . . . . . . . . . . . . . . . . . . . . . . . . . . . . . . . . . . . . . . ",
". . . . . . . . . . . . . . . . . . . . . . . . . . . . . . . . . . . . . . . . . . . . . . . . . . . . . . . . . . . . . . . . ",
". . . . . . . . . . . . . . . . . . . . . . . . . . . . . . . . . . . . . . . . . . . . . . . . . . . . . . . . . . . . . . . . ",
". . . . . . . . . . . . . . . . . . . . . . . . . . . . . . . . . . . . . . . . . . . . . . . . . . . . . . . . . . . . . . . . ",
". . . . . . . . . . . . . . . . . . . . . . . . . . . . . . . . . . . . . . . . . . . . . . . . . . . . . . . . . . . . . . . . ",
". . . . . . . . . . . . . . . . . . . . . . . . . . . . . . . . . . . . . . . . . . . . . . . . . . . . . . . . . . . . . . . . "};
